HIERARCHY
ROOT Hips
{
  OFFSET 2.26061 22.2878 23.7974
  CHANNELS 6 Xposition Yposition Zposition Zrotation Xrotation Yrotation
  JOINT LeftUpLeg
  {
    OFFSET 8.64259 1.95398 -2.38835
    CHANNELS 3 Zrotation Xrotation Yrotation
    JOINT LeftLeg
    {
      OFFSET 43.7702 0 0
      CHANNELS 3 Zrotation Xrotation Yrotation
      JOINT LeftFoot
      {
        OFFSET 40.6238 0 0
        CHANNELS 3 Zrotation Xrotation Yrotation
        JOINT LeftToeBase
        {
          OFFSET 12.7242 0 0
          CHANNELS 3 Zrotation Xrotation Yrotation
          End Site
          {
            OFFSET 0 0 0
          }
        }
      }
    }
  }
  JOINT RightUpLeg
  {
    OFFSET -8.2249 1.95398 -2.59336
    CHANNELS 3 Zrotation Xrotation Yrotation
    JOINT RightLeg
    {
      OFFSET 43.5653 0 0
      CHANNELS 3 Zrotation Xrotation Yrotation
      JOINT RightFoot
      {
        OFFSET 40.6238 0 0
        CHANNELS 3 Zrotation Xrotation Yrotation
        JOINT RightToeBase
        {
          OFFSET 12.7242 0 0
          CHANNELS 3 Zrotation Xrotation Yrotation
          End Site
          {
            OFFSET 0 0 0
          }
        }
      }
    }
  }
  JOINT Spine
  {
    OFFSET 0.165834 0.87714 6.61349
    CHANNELS 3 Zrotation Xrotation Yrotation
    JOINT Spine1
    {
      OFFSET 7.38963 1.71661e-005 0
      CHANNELS 3 Zrotation Xrotation Yrotation
      JOINT Spine2
      {
        OFFSET 11.9445 1.14441e-005 0
        CHANNELS 3 Zrotation Xrotation Yrotation
        JOINT Spine3
        {
          OFFSET 14.7254 4.19617e-005 0
          CHANNELS 3 Zrotation Xrotation Yrotation
          JOINT Spine4
          {
            OFFSET 10.9679 0 0
            CHANNELS 3 Zrotation Xrotation Yrotation
            JOINT RightShoulder
            {
              OFFSET 2.46616 -1.6653 3.69651
              CHANNELS 3 Zrotation Xrotation Yrotation
              JOINT RightArm
              {
                OFFSET 13.0012 0 0
                CHANNELS 3 Zrotation Xrotation Yrotation
                JOINT RightForeArm
                {
                  OFFSET 28.7848 1.52588e-005 0
                  CHANNELS 3 Zrotation Xrotation Yrotation
                  JOINT RightHand
                  {
                    OFFSET 26.5688 1.52588e-005 0
                    CHANNELS 3 Zrotation Xrotation Yrotation
                    End Site
                    {
                      OFFSET 0 0 0
                    }
                  }
                }
              }
            }
            JOINT LeftShoulder
            {
              OFFSET 2.38034 -1.29275 -3.7523
              CHANNELS 3 Zrotation Xrotation Yrotation
              JOINT LeftArm
              {
                OFFSET 16.3182 6.10351e-005 0
                CHANNELS 3 Zrotation Xrotation Yrotation
                JOINT LeftForeArm
                {
                  OFFSET 27.0901 0 0
                  CHANNELS 3 Zrotation Xrotation Yrotation
                  JOINT LeftHand
                  {
                    OFFSET 24.5451 1.52588e-005 0
                    CHANNELS 3 Zrotation Xrotation Yrotation
                    End Site
                    {
                      OFFSET 0 0 0
                    }
                  }
                }
              }
            }
            JOINT Neck
            {
              OFFSET 5.0226 -0.0266342 0
              CHANNELS 3 Zrotation Xrotation Yrotation
              JOINT Head
              {
                OFFSET 6.69363 2.86102e-005 0
                CHANNELS 3 Zrotation Xrotation Yrotation
                End Site
                {
                  OFFSET 0 0 0
                }
              }
            }
          }
        }
      }
    }
  }
}
MOTION
Frames:	12
Frame Time:	0.0416667
-69.7483 66.4804 -0.350542 46.6377 -77.7727 47.4261 -177.789 46.281 99.7826 -105.797 26.3958 1.50736 46.8639 -4.18956 4.05708 65.1557 38.6175 22.857 141.169 67.2199 124.324 -95.6139 11.8855 0.0297354 89.0511 -13.4364 -4.61903 32.8815 0.254426 -1.74114 1.22343 10.7891 -91.0677 5.30915 2.00195 -2.13794 -6.36213 1.90595 -2.22395 -28.9023 2.55185 -1.43742 -8.88965 2.55186 -1.43741 87.4341 -40.9433 -107.517 5.96054 1.65045 -18.0468 -9.1754 -24.6155 -50.3048 -18.1836 -1.42078 3.77169 -102.763 -44.7931 57.8146 -27.1696 13.6616 24.4812 1.38299 6.02929 -36.5541 16.7654 0.846626 1.18592 1.51846 -11.7995 12.9771 27.0885 -15.9209 -9.90427 
-69.697 64.294 -1.55344 49.8099 -79.5468 51.3352 -179.77 46.4448 101.514 -109.678 27.8342 1.44651 47.6986 -3.58806 4.75214 69.5522 41.8845 20.3954 136.199 67.4866 129.431 -98.4708 11.9135 -0.373977 88.7254 -13.7661 -4.76606 33.4587 0.260343 -1.07058 1.37609 10.9785 -91.12 4.93314 2.28902 -2.2336 -6.73789 2.18852 -2.33216 -29.2816 2.85438 -1.44227 -9.269 2.85437 -1.44229 87.3889 -40.9582 -107.588 4.91419 1.46543 -18.0497 -10.6093 -26.4985 -50.6907 -19.2222 -1.65457 4.837 -102.797 -44.9488 57.833 -27.5433 14.1402 24.7236 1.573 6.66837 -36.8268 17.6683 0.996012 1.77162 1.69548 -11.8075 13.5884 26.8349 -16.2333 -10.7538 
-69.7971 62.2187 -2.88983 57.5584 -80.8463 60.0628 176.772 47.1152 104.289 -113.628 28.288 1.34021 47.82 -3.48567 3.4242 71.3454 42.3628 18.0606 131.196 67.1178 134.41 -100.816 12.5148 -0.717886 88.4353 -13.9952 -4.87327 33.4541 0.228948 0.205701 1.5185 11.21 -91.2289 4.47358 2.53357 -2.43382 -7.19739 2.42403 -2.54294 -29.7435 3.14776 -1.55968 -9.73086 3.14776 -1.5597 87.2988 -40.9822 -107.732 3.51059 1.27158 -17.4067 -12.0407 -27.5111 -51.6738 -20.8237 -2.2639 7.5246 -102.641 -44.8121 58.0069 -27.9128 14.7102 24.8837 1.85845 7.39571 -37.0823 17.7865 1.03664 1.96484 2.32874 -12.0218 13.4962 26.7882 -16.4659 -10.687 
-69.8294 60.23 -3.99014 63.989 -81.6703 67.2937 174.325 48.1197 106.466 -117.008 29.3243 1.11671 47.4897 -3.57122 4.35622 70.9881 42.3435 18.6454 125.626 67.0055 139.96 -103.128 13.118 -1.09058 88.1046 -14.1686 -4.96793 33.2616 0.209423 0.652707 1.63946 11.387 -91.3108 4.12222 2.74576 -2.58172 -7.54861 2.62951 -2.70003 -30.0972 3.39457 -1.63689 -10.0846 3.39456 -1.6369 86.8095 -40.7185 -108.651 2.24817 1.32398 -16.0233 -12.2707 -27.3736 -52.0494 -22.2126 -2.08203 6.07209 -102.709 -45.2798 58.1121 -27.6449 14.8642 24.7881 1.67367 7.55346 -36.8346 19.187 1.20606 2.43459 2.70104 -12.2593 14.6893 26.3541 -17.272 -12.2547 
-69.8856 58.423 -5.04066 72.7563 -82.5658 76.5192 172.472 48.9004 108.244 -120.07 29.8644 0.891687 46.9992 -3.78664 4.25797 69.14 42.5399 22.2457 121.433 66.8702 144.164 -105.085 12.3172 -1.49737 87.7378 -14.2418 -5.04595 32.0274 0.191111 -0.818766 1.79062 11.5714 -91.3239 3.75627 3.04641 -2.59259 -7.91395 2.92941 -2.72413 -30.4687 3.68456 -1.55666 -10.4561 3.68456 -1.55666 87.1168 -40.3084 -108.274 2.14804 1.30276 -15.5256 -12.4657 -27.9004 -52.1471 -23.3313 -2.33087 6.90505 -102.661 -45.0476 58.0807 -27.5902 14.7256 25.0423 1.15664 6.7244 -36.7575 19.0456 1.24064 2.66034 2.1877 -12.5846 13.8732 27.1476 -17.3663 -11.7339 
-69.9861 56.8383 -5.92816 80.2703 -82.7575 84.5965 169.42 49.7307 110.24 -122.558 30.175 0.654184 45.7661 -4.75929 2.91441 70.3794 43.5535 21.7543 117.134 66.7753 148.612 -106.601 13.1452 -1.82366 86.7488 -14.107 -5.03518 32.8324 0.210329 -0.25638 1.85117 11.7109 -91.3593 3.47846 3.15631 -2.64919 -8.19162 3.0367 -2.78552 -30.7482 3.80637 -1.57754 -10.7356 3.80636 -1.57754 87.0153 -39.561 -108.714 2.32258 1.12006 -14.7015 -13.1218 -28.3314 -51.9366 -25.7836 -2.58672 7.18321 -102.707 -45.2026 58.0804 -27.5815 14.5905 25.1632 1.00979 6.68419 -36.2752 19.04 1.27645 2.85098 1.59109 -12.7342 13.6669 28.1984 -17.5306 -11.7123 
-70.1483 55.4503 -6.67084 84.7589 -82.553 89.4756 165.799 50.4944 112.501 -124.659 31.6159 0.323155 45.0377 -5.8028 1.68907 71.0983 43.3337 20.1375 113.476 66.793 152.745 -108.042 12.4141 -2.0891 86.4946 -14.1695 -6.38327 31.441 0.20223 -1.67926 1.88624 11.8399 -91.3814 3.22136 3.22031 -2.67981 -8.44866 3.0993 -2.81894 -31.0064 3.8766 -1.58746 -10.9937 3.87661 -1.58744 87.168 -39.3641 -108.522 2.23963 1.53002 -14.6176 -13.6729 -28.7645 -52.4643 -26.3275 -2.71498 7.56505 -102.564 -45.1119 58.2548 -27.6764 14.5852 25.1745 0.98877 6.73922 -36.0783 18.7951 1.25534 2.82376 1.90234 -12.9931 14.3258 28.0303 -18.2375 -12.9848 
-70.2185 54.2863 -7.32758 88.4943 -82.2798 93.5923 162.416 51.2007 114.491 -126.354 32.0234 0.0705632 44.4043 -6.38191 0.264393 70.3979 44.423 23.1548 109.64 66.8258 156.63 -109.176 12.9222 -2.37615 85.6627 -13.9668 -6.44232 31.7062 0.171535 -0.650258 1.9118 11.9306 -91.4231 3.04049 3.25686 -2.75242 -8.6296 3.13262 -2.89308 -31.1874 3.93328 -1.64572 -11.1747 3.93327 -1.64574 87.2206 -39.0526 -108.543 2.19464 1.38042 -13.9059 -13.6224 -28.4327 -52.7716 -27.7113 -2.76705 7.29309 -102.748 -45.2787 58.0541 -27.7396 14.4016 25.5611 0.600459 6.18064 -35.8922 19.1581 1.26308 2.74 1.56675 -13.1425 14.1258 28.8051 -18.3593 -12.7957 
-70.2201 53.2073 -7.872 91.1441 -82.1566 96.5142 159.469 51.9314 116.371 -127.82 33.5988 -0.246076 43.93 -7.13509 0.329098 69.8184 44.5346 24.3502 106.006 66.772 160.208 -110.281 13.15 -2.62388 84.9155 -13.7627 -6.50149 31.9203 0.174213 -0.456992 1.93705 12.0319 -91.4276 2.83824 3.30774 -2.75094 -8.83171 3.18351 -2.89384 -31.3907 3.98134 -1.62898 -11.378 3.98135 -1.62897 87.5539 -38.6673 -108.102 2.51894 1.15901 -13.7765 -13.1431 -27.7253 -52.9446 -27.8994 -2.79728 7.29908 -102.378 -45.2999 58.6155 -27.8286 13.9413 25.6849 0.689095 6.07982 -35.7539 19.3413 1.28064 2.77047 2.1515 -13.1433 14.0911 28.9318 -18.4797 -12.9701 
-70.1664 52.2467 -8.33131 95.0645 -82.2495 100.709 155.836 52.0085 118.948 -129.063 34.4133 -0.565822 44.0593 -7.99457 -3.65677 69.496 44.3578 24.6334 103.513 66.3322 162.542 -111.061 13.4276 -2.8332 84.8018 -13.7386 -6.53888 31.0054 0.122532 -0.252587 1.98538 12.1257 -91.4305 2.65141 3.40506 -2.74623 -9.01831 3.28095 -2.89342 -31.5796 4.07275 -1.59511 -11.567 4.07275 -1.59512 87.5329 -38.5541 -108.179 2.53307 0.716844 -13.3216 -12.9503 -27.2588 -53.076 -30.0037 -2.98483 7.3132 -102.565 -45.2833 58.3281 -27.9271 13.4721 26.2014 0.70493 5.91532 -35.4512 19.3244 1.30423 2.89806 1.76118 -13.4197 13.8663 29.7731 -18.7745 -12.9598 
-70.1447 51.3735 -8.71399 98.5503 -81.9624 104.416 152.613 52.0573 120.858 -129.707 38.4675 -1.09826 42.0646 -10.9098 -3.56513 70.0349 44.94 24.6236 101.088 66.1574 164.881 -111.936 13.6815 -3.03185 84.0982 -13.5003 -6.57146 30.9779 0.109483 0.0118698 1.97424 12.2061 -91.4255 2.49018 3.38657 -2.72867 -9.17955 3.26325 -2.87508 -31.7406 4.04983 -1.58393 -11.728 4.04984 -1.58394 87.5068 -38.7886 -108.141 2.33662 0.146533 -12.6119 -13.0411 -26.8512 -54.4123 -32.0793 -3.2113 7.44604 -102.2 -45.1184 58.8034 -28.1798 13.3975 26.6186 0.341813 5.47293 -35.257 19.653 1.35852 3.06584 2.23907 -13.2194 13.8874 29.2679 -18.7137 -13.4474 
-70.1786 50.6262 -9.01991 101.443 -81.8456 107.701 149.929 52.0953 122.839 -130.765 38.3678 -1.24892 42.0946 -11.0987 -5.60272 68.0857 43.9745 26.5534 99.4513 65.9476 166.968 -112.57 13.9896 -3.17325 83.4618 -13.5068 -6.64609 31.4953 0.166346 -0.757562 1.95801 12.2867 -91.4309 2.32846 3.35377 -2.73172 -9.34133 3.23033 -2.87667 -31.9016 4.01946 -1.59675 -11.8889 4.01945 -1.59675 87.7179 -38.52 -107.869 3.05031 -0.104153 -11.9534 -14.8408 -26.4181 -56.4563 -33.1819 -3.41429 7.82815 -102.148 -45.0189 58.8379 -28.3326 12.9848 26.9785 0.0114014 4.94618 -34.4756 19.4868 1.16787 2.13963 2.38212 -13.0756 13.2882 29.7251 -18.4399 -13.0277 
